<svg width="280" height="32" viewBox="0 0 280 32" fill="none" xmlns="http://www.w3.org/2000/svg">
<path d="M69 6C69 2.68629 71.6863 0 75 0H95C98.3137 0 101 2.68629 101 6V26C101 29.3137 98.3137 32 95 32H75C71.6863 32 69 29.3137 69 26V6Z" fill="white"/>
<path d="M87 12.6667C87.3536 12.6667 87.6928 12.8071 87.9428 13.0572C88.1929 13.3072 88.3333 13.6464 88.3333 14L87 12.6667ZM91 14C91.0002 14.6248 90.854 15.2409 90.5732 15.799C90.2924 16.3571 89.8847 16.8417 89.3829 17.2139C88.8811 17.5861 88.2991 17.8356 87.6835 17.9423C87.0679 18.0491 86.4358 18.0102 85.838 17.8287L84.3333 19.3333H83V20.6667H81.6667V22H79.6667C79.4899 22 79.3203 21.9298 79.1953 21.8047C79.0702 21.6797 79 21.5101 79 21.3333V19.6093C79 19.4325 79.0703 19.263 79.1953 19.138L83.1713 15.162C83.005 14.612 82.959 14.0326 83.0367 13.4633C83.1143 12.894 83.3137 12.348 83.6213 11.8627C83.9289 11.3773 84.3374 10.964 84.8191 10.6507C85.3008 10.3374 85.8443 10.1316 86.4127 10.0472C86.9811 9.96283 87.561 10.0019 88.1129 10.1618C88.6648 10.3216 89.1758 10.5985 89.6111 10.9736C90.0464 11.3487 90.3958 11.8132 90.6354 12.3354C90.8751 12.8576 90.9994 13.4254 91 14V14Z" fill="#C4C4C4"/>
<path d="M124.75 11.25L114.25 21.75" stroke="white" stroke-width="0.875" stroke-linecap="round" stroke-linejoin="round"/>
<path d="M114.25 11.25L124.75 21.75" stroke="white" stroke-width="0.875" stroke-linecap="round" stroke-linejoin="round"/>
<path d="M0 6C0 2.68629 2.68629 0 6 0H26C29.3137 0 32 2.68629 32 6V26C32 29.3137 29.3137 32 26 32H6C2.68629 32 0 29.3137 0 26V6Z" fill="white"/>
<rect width="16" height="16" transform="translate(8 8)" fill="white"/>
<path d="M11.3333 13.3334H20.6667H11.3333ZM11.3333 13.3334C10.9797 13.3334 10.6406 13.1929 10.3905 12.9428C10.1405 12.6928 10 12.3536 10 12C10 11.6464 10.1405 11.3073 10.3905 11.0572C10.6406 10.8072 10.9797 10.6667 11.3333 10.6667H20.6667C21.0203 10.6667 21.3594 10.8072 21.6095 11.0572C21.8595 11.3073 22 11.6464 22 12C22 12.3536 21.8595 12.6928 21.6095 12.9428C21.3594 13.1929 21.0203 13.3334 20.6667 13.3334H11.3333ZM11.3333 13.3334V20C11.3333 20.3536 11.4738 20.6928 11.7239 20.9428C11.9739 21.1929 12.313 21.3334 12.6667 21.3334H19.3333C19.687 21.3334 20.0261 21.1929 20.2761 20.9428C20.5262 20.6928 20.6667 20.3536 20.6667 20V13.3334H11.3333ZM14.6667 16H17.3333Z" fill="#C4C4C4"/>
<path d="M55.75 11.25L45.25 21.75" stroke="white" stroke-width="0.875" stroke-linecap="round" stroke-linejoin="round"/>
<path d="M45.25 11.25L55.75 21.75" stroke="white" stroke-width="0.875" stroke-linecap="round" stroke-linejoin="round"/>
<path d="M138 6C138 2.68629 140.686 0 144 0H164C167.314 0 170 2.68629 170 6V26C170 29.3137 167.314 32 164 32H144C140.686 32 138 29.3137 138 26V6Z" fill="white"/>
<path d="M148.667 12.6667V19.3333C148.667 20.8067 151.055 22 154 22C156.945 22 159.333 20.8067 159.333 19.3333V12.6667H148.667ZM148.667 12.6667C148.667 14.14 151.055 15.3333 154 15.3333C156.945 15.3333 159.333 14.14 159.333 12.6667H148.667ZM148.667 12.6667C148.667 11.1933 151.055 10 154 10C156.945 10 159.333 11.1933 159.333 12.6667H148.667ZM159.333 16C159.333 17.4733 156.945 18.6667 154 18.6667C151.055 18.6667 148.667 17.4733 148.667 16" fill="#C4C4C4"/>
</svg>
